<svg xmlns="http://www.w3.org/2000/svg" width="128" height="128" viewBox="0 0 128 128">
  <path fill="currentColor" d="M12 36C12 22.7 22.7 12 36 12H92C105.3 12 116 22.7 116 36V92C116 105.3 105.3 116 92 116H36C22.7 116 12 105.3 12 92V36Z"/>
  
  <g transform="translate(34, 34) scale(2.5)" fill="white">
    <path d="M12.24 10.285V14.4h6.806c-.275 1.765-2.056 5.174-6.806 5.174-4.095 0-7.439-3.389-7.439-7.574s3.345-7.574 7.439-7.574c2.33 0 3.891.989 4.785 1.849l3.254-3.138C18.189 1.186 15.479 0 12.24 0c-6.635 0-12 5.365-12 12s5.365 12 12 12c6.926 0 11.52-4.869 11.52-11.726 0-.788-.085-1.39-.189-1.989H12.24z"/>
  </g>
  
  <circle cx="88" cy="88" r="18" fill="white"/>
  
  <path fill="currentColor" fill-rule="evenodd" d="M96 86h-2v-4c0-3.3-2.7-6-6-6c-3.3 0-6 2.7-6 6v4h-2c-1.1 0-2 .9-2 2v12c0 1.1.9 2 2 2h16c1.1 0 2-.9 2-2v-12c0-1.1-.9-2-2-2z M92 86h-8v-4c0-2.2 1.8-4 4-4c2.2 0 4 1.8 4 4v4z M88 96c-1.1 0-2-.9-2-2c0-1.1.9-2 2-2c1.1 0 2 .9 2 2c0 1.1-.9 2-2 2z"/>
</svg>
